<?xml version="1.0" encoding="UTF-8"?>
<svg xmlns="http://www.w3.org/2000/svg" width="1024" height="1024" viewBox="0 0 1024 1024" role="img" aria-label="Illiquid media player">
<defs><linearGradient id="tile" x1="0" y1="0" x2="1" y2="1"><stop stop-color="#344454"/><stop offset=".5" stop-color="#17232f"/><stop offset="1" stop-color="#0b1119"/></linearGradient>
<linearGradient id="metal" x1=".15" y1="0" x2=".85" y2="1"><stop stop-color="#ffffff"/><stop offset=".25" stop-color="#e2eef2"/><stop offset=".5" stop-color="#91a9b7"/><stop offset=".7" stop-color="#d3e1e8"/><stop offset="1" stop-color="#758e9e"/></linearGradient>
<linearGradient id="rim" x1="0" y1="0" x2="1" y2="1"><stop stop-color="#ffffff" stop-opacity=".38"/><stop offset="1" stop-color="#ffffff" stop-opacity=".06"/></linearGradient></defs>
<path d="M512 190C652 190 739 285 770 421C804 564 729 730 576 781C426 830 257 753 222 602C191 468 271 420 289 324C304 240 406 190 512 190Z M449 376Q432 366 432 387V633Q432 654 449 644L644 521Q660 510 644 500Z" fill="url(#metal)" fill-rule="evenodd"/>
</svg>
